<svg version="1.1" xmlns="http://www.w3.org/2000/svg" xmlns:xlink="http://www.w3.org/1999/xlink" x="0px" y="0px" viewBox="0 0 256 256" enable-background="new 0 0 256 256" xml:space="preserve">
<metadata> Svg Vector Icons : http://www.onlinewebfonts.com/icon </metadata>
<g><g><path fill="#000000" d="M128,33.6c44.9,0,67.8,6.2,87.3,49.9c3.1,0,12.2,0,14.8,0c9.1,0,9.1,17.7,0,17.7h-7.6C228,108.9,246,127,246,148v69.5l0,0v0.1l0,0v0.1l0,0v0.1l0,0v0.1l0,0l0,0.1l0,0l0,0.1l0,0l0,0.1l0,0l0,0.1l0,0l0,0.1l0,0l0,0.1l0,0l0,0.1l0,0l0,0.1l0,0l0,0.1l0,0l0,0.1l0,0l0,0.1l0,0l0,0.1l0,0l0,0.1l0,0l0,0.1l0,0l0,0.1l0,0l0,0.1l0,0l0,0.1l0,0l0,0.1l0,0l-0.1,0.1l0,0l-0.1,0.1l0,0l-0.1,0.1l0,0l-0.1,0.1l0,0l-0.1,0.1l0,0l-0.1,0.1l0,0l-0.1,0.1l0,0l-0.1,0.1l0,0l-0.1,0.1l0,0l-0.1,0l0,0l-0.1,0.1l0,0l-0.1,0.1l0,0l0,0.1l0,0l-0.1,0.1l0,0l-0.1,0.1l0,0l-0.1,0.1l0,0l-0.1,0.1l0,0l-0.1,0.1l0,0l-0.1,0.1l0,0l-0.1,0.1l0,0l-0.1,0.1l0,0l-0.1,0l0,0l-0.1,0l0,0l-0.1,0l0,0l-0.1,0l0,0l-0.1,0l0,0l-0.1,0l0,0l-0.1,0l0,0l-0.1,0l0,0l-0.1,0l0,0l-0.1,0l0,0l-0.1,0l0,0l-0.1,0l0,0l-0.1,0l0,0l-0.1,0l0,0l-0.1,0l0,0l-0.1,0l0,0l-0.1,0l0,0h-0.1l0,0h-0.1l0,0h-0.1l0,0h-0.1l0,0h-25.9c-2.7,0-4.9-2.1-4.9-4.9v-11.4H128H45.6v11.4c0,2.7-2.2,4.8-4.9,4.9H14.9l0,0h-0.1l0,0h-0.1l0,0h-0.1l0,0h-0.1l0,0l-0.1,0l0,0l-0.1,0l0,0l-0.1,0l0,0l-0.1,0l0,0l-0.1,0l0,0l-0.1,0l0,0l-0.1,0l0,0l-0.1,0l0,0l-0.1,0l0,0l-0.1,0l0,0l-0.1,0l0,0l-0.1,0l0,0l-0.1,0l0,0l-0.1,0l0,0l-0.1,0l0,0l-0.1,0l0,0l-0.1,0l0,0l-0.1-0.1l0,0l-0.1-0.1l0,0l-0.1-0.1l0,0l-0.1-0.1l0,0l-0.1-0.1l0,0l-0.1-0.1l0,0l-0.1-0.1l0,0l-0.1-0.1l0,0l-0.1-0.1l0,0l-0.1-0.1l0,0l0-0.1l0,0l-0.1-0.1l0,0l-0.1-0.1l0,0l-0.1,0l0,0l-0.1-0.1l0,0l-0.1-0.1l0,0l-0.1-0.1l0,0l-0.1-0.1l0,0l-0.1-0.1l0,0l-0.1-0.1l0,0l-0.1-0.1l0,0l0-0.1l0,0l0-0.1l0,0l0-0.1l0,0l0-0.1l0,0l0-0.1l0,0l0-0.1l0,0l0-0.1l0,0l0-0.1l0,0l0-0.1l0,0l0-0.1l0,0l0-0.1l0,0l0-0.1l0,0l0-0.1l0,0l0-0.1l0,0l0-0.1l0,0l0-0.1l0,0l0-0.1l0,0l0-0.1l0,0v-0.1l0,0v-0.1l0,0v-0.1l0,0v-0.1l0,0V148c0-21,18-39.1,23.6-46.8h-7.6c-9.1,0-9.1-17.7,0-17.7c2.6,0,11.7,0,14.8,0C60.1,39.8,83.1,33.6,128,33.6L128,33.6z M128,97.9h75c-8.5-44.3-36.5-51.2-75-51.2s-66.5,6.8-75,51.2H128L128,97.9z M78.9,162.6c-2.5-4.8-6.9-9.1-7.9-15.3c-0.4-2.7-1.9-4.1-3.8-4.7l-25-8.7c-5.5-1.9-7.1,2.1-7.6,4.4c-1.5,6.6-1.2,12.4,2.6,16.6C44.6,163.2,82,168.4,78.9,162.6L78.9,162.6z M177.1,162.6c-3.1,5.8,34.3,0.6,41.7-7.7c3.8-4.2,4.1-10,2.6-16.6c-0.5-2.3-2.1-6.3-7.6-4.4l-25,8.7c-1.9,0.7-3.4,2-3.8,4.7C184,153.5,179.6,157.8,177.1,162.6z"/></g></g>
</svg>